<svg width="1538.4" height="744.7" xmlns="http://www.w3.org/2000/svg">
 <style type="text/css">.st0{fill:none;stroke:#000000;stroke-width:0.9;}
	.st1{fill:#FFFFFF;stroke:#231F20;stroke-miterlimit:10;}</style>

 <g>
  <title>background</title>
  <rect fill="none" id="canvas_background" height="402" width="582" y="-1" x="-1"/>
 </g>
 <g>
  <title>Layer 1</title>
  <g id="svg_1">
   <polygon id="svg_2" points="18.000019073486328,18.000019073486328 46.300018310546875,18.000019073486328 46.300018310546875,26.500019073486328 74.70001983642578,26.500019073486328 74.70001983642578,18.000019073486328 91.70001602172852,18.000019073486328 91.70001602172852,26.500019073486328 108.70001602172852,26.500019073486328 108.70001602172852,18.000019073486328 125.70001602172852,18.000019073486328 125.70001602172852,26.500019073486328 142.70001602172852,26.500019073486328 142.70001602172852,18.000019073486328 159.70001602172852,18.000019073486328 159.70001602172852,26.500019073486328 176.70001602172852,26.500019073486328 176.70001602172852,18.000019073486328 193.70001602172852,18.000019073486328 193.70001602172852,26.500019073486328 210.80002212524414,26.500019073486328 210.80002212524414,18.000019073486328 227.80002212524414,18.000019073486328 227.80002212524414,26.500019073486328 244.80002212524414,26.500019073486328 244.80002212524414,18.000019073486328 261.80002212524414,18.000019073486328 261.80002212524414,26.500019073486328 278.8000068664551,26.500019073486328 278.8000068664551,18.000019073486328 295.8000068664551,18.000019073486328 295.8000068664551,26.500019073486328 312.8000068664551,26.500019073486328 312.8000068664551,18.000019073486328 329.8000068664551,18.000019073486328 329.8000068664551,26.500019073486328 346.8000068664551,26.500019073486328 346.8000068664551,18.000019073486328 363.8000068664551,18.000019073486328 363.8000068664551,26.500019073486328 380.8000068664551,26.500019073486328 380.8000068664551,18.000019073486328 397.8000068664551,18.000019073486328 397.8000068664551,26.500019073486328 414.9000129699707,26.500019073486328 414.9000129699707,18.000019073486328 431.9000129699707,18.000019073486328 431.9000129699707,26.500019073486328 448.9000129699707,26.500019073486328 448.9000129699707,18.000019073486328 465.9000129699707,18.000019073486328 465.9000129699707,26.500019073486328 482.9000129699707,26.500019073486328 482.9000129699707,18.000019073486328 499.9000129699707,18.000019073486328 499.9000129699707,26.500019073486328 528.2000312805176,26.500019073486328 528.2000312805176,18.000019073486328 556.5999946594238,18.000019073486328 556.5999946594238,42.100019454956055 548.0999946594238,42.100019454956055 548.0999946594238,66.20001983642578 556.5999946594238,66.20001983642578 556.5999946594238,83.20001983642578 548.0999946594238,83.20001983642578 548.0999946594238,100.20001602172852 556.5999946594238,100.20001602172852 556.5999946594238,117.20001602172852 548.0999946594238,117.20001602172852 548.0999946594238,134.20001602172852 556.5999946594238,134.20001602172852 556.5999946594238,151.20001602172852 548.0999946594238,151.20001602172852 548.0999946594238,168.20001602172852 556.5999946594238,168.20001602172852 556.5999946594238,185.20001602172852 548.0999946594238,185.20001602172852 548.0999946594238,202.30002212524414 556.5999946594238,202.30002212524414 556.5999946594238,219.30002212524414 548.0999946594238,219.30002212524414 548.0999946594238,236.30002212524414 556.5999946594238,236.30002212524414 556.5999946594238,253.30002212524414 548.0999946594238,253.30002212524414 548.0999946594238,277.4000129699707 556.5999946594238,277.4000129699707 556.5999946594238,301.5000190734863 528.2000312805176,301.5000190734863 528.2000312805176,293.0000190734863 499.9000129699707,293.0000190734863 499.9000129699707,301.5000190734863 482.9000129699707,301.5000190734863 482.9000129699707,293.0000190734863 465.9000129699707,293.0000190734863 465.9000129699707,301.5000190734863 448.9000129699707,301.5000190734863 448.9000129699707,293.0000190734863 431.9000129699707,293.0000190734863 431.9000129699707,301.5000190734863 414.9000129699707,301.5000190734863 414.9000129699707,293.0000190734863 397.8000068664551,293.0000190734863 397.8000068664551,301.5000190734863 380.8000068664551,301.5000190734863 380.8000068664551,293.0000190734863 363.8000068664551,293.0000190734863 363.8000068664551,301.5000190734863 346.8000068664551,301.5000190734863 346.8000068664551,293.0000190734863 329.8000068664551,293.0000190734863 329.8000068664551,301.5000190734863 312.8000068664551,301.5000190734863 312.8000068664551,293.0000190734863 295.8000068664551,293.0000190734863 295.8000068664551,301.5000190734863 278.8000068664551,301.5000190734863 278.8000068664551,293.0000190734863 261.80002212524414,293.0000190734863 261.80002212524414,301.5000190734863 244.80002212524414,301.5000190734863 244.80002212524414,293.0000190734863 227.80002212524414,293.0000190734863 227.80002212524414,301.5000190734863 210.80002212524414,301.5000190734863 210.80002212524414,293.0000190734863 193.70001602172852,293.0000190734863 193.70001602172852,301.5000190734863 176.70001602172852,301.5000190734863 176.70001602172852,293.0000190734863 159.70001602172852,293.0000190734863 159.70001602172852,301.5000190734863 142.70001602172852,301.5000190734863 142.70001602172852,293.0000190734863 125.70001602172852,293.0000190734863 125.70001602172852,301.5000190734863 108.70001602172852,301.5000190734863 108.70001602172852,293.0000190734863 91.70001602172852,293.0000190734863 91.70001602172852,301.5000190734863 74.70001983642578,301.5000190734863 74.70001983642578,293.0000190734863 46.300018310546875,293.0000190734863 46.300018310546875,301.5000190734863 18.000019073486328,301.5000190734863 18.000019073486328,277.4000129699707 26.500019073486328,277.4000129699707 26.500019073486328,253.30002212524414 18.000019073486328,253.30002212524414 18.000019073486328,236.30002212524414 26.500019073486328,236.30002212524414 26.500019073486328,219.30002212524414 18.000019073486328,219.30002212524414 18.000019073486328,202.30002212524414 26.500019073486328,202.30002212524414 26.500019073486328,185.20001602172852 18.000019073486328,185.20001602172852 18.000019073486328,168.20001602172852 26.500019073486328,168.20001602172852 26.500019073486328,151.20001602172852 18.000019073486328,151.20001602172852 18.000019073486328,134.20001602172852 26.500019073486328,134.20001602172852 26.500019073486328,117.20001602172852 18.000019073486328,117.20001602172852 18.000019073486328,100.20001602172852 26.500019073486328,100.20001602172852 26.500019073486328,83.20001983642578 18.000019073486328,83.20001983642578 18.000019073486328,66.20001983642578 26.500019073486328,66.20001983642578 26.500019073486328,42.100019454956055 18.000019073486328,42.100019454956055 " class="st0"/>
  </g>
  <g id="svg_3">
   <polygon id="svg_4" points="556.62890625,19.33335268497467 584.928955078125,19.33335268497467 584.928955078125,27.83335268497467 613.2289428710938,27.83335268497467 613.2289428710938,19.33335268497467 630.3289184570312,19.33335268497467 630.3289184570312,27.83335268497467 647.3289184570312,27.83335268497467 647.3289184570312,19.33335268497467 664.3289184570312,19.33335268497467 664.3289184570312,27.83335268497467 681.3289184570312,27.83335268497467 681.3289184570312,19.33335268497467 698.3289184570312,19.33335268497467 698.3289184570312,27.83335268497467 715.3289184570312,27.83335268497467 715.3289184570312,19.33335268497467 732.3289184570312,19.33335268497467 732.3289184570312,27.83335268497467 749.3289184570312,27.83335268497467 749.3289184570312,19.33335268497467 766.3289184570312,19.33335268497467 766.3289184570312,27.83335268497467 783.3289184570312,27.83335268497467 783.3289184570312,19.33335268497467 800.3289184570312,19.33335268497467 800.3289184570312,27.83335268497467 817.3289184570312,27.83335268497467 817.3289184570312,19.33335268497467 834.3289184570312,19.33335268497467 834.3289184570312,27.83335268497467 851.428955078125,27.83335268497467 851.428955078125,19.33335268497467 868.428955078125,19.33335268497467 868.428955078125,27.83335268497467 885.428955078125,27.83335268497467 885.428955078125,19.33335268497467 902.428955078125,19.33335268497467 902.428955078125,27.83335268497467 919.428955078125,27.83335268497467 919.428955078125,19.33335268497467 936.428955078125,19.33335268497467 936.428955078125,27.83335268497467 953.428955078125,27.83335268497467 953.428955078125,19.33335268497467 970.428955078125,19.33335268497467 970.428955078125,27.83335268497467 987.428955078125,27.83335268497467 987.428955078125,19.33335268497467 1004.428955078125,19.33335268497467 1004.428955078125,27.83335268497467 1021.428955078125,27.83335268497467 1021.428955078125,19.33335268497467 1038.428955078125,19.33335268497467 1038.428955078125,27.83335268497467 1066.8289794921875,27.83335268497467 1066.8289794921875,19.33335268497467 1095.12890625,19.33335268497467 1095.12890625,43.43335497379303 1086.62890625,43.43335497379303 1086.62890625,67.53335344791412 1095.12890625,67.53335344791412 1095.12890625,84.53335344791412 1086.62890625,84.53335344791412 1086.62890625,101.53334581851959 1095.12890625,101.53334581851959 1095.12890625,118.53334581851959 1086.62890625,118.53334581851959 1086.62890625,135.5333458185196 1095.12890625,135.5333458185196 1095.12890625,152.5333458185196 1086.62890625,152.5333458185196 1086.62890625,169.5333458185196 1095.12890625,169.5333458185196 1095.12890625,186.5333458185196 1086.62890625,186.5333458185196 1086.62890625,203.63335192203522 1095.12890625,203.63335192203522 1095.12890625,220.63335192203522 1086.62890625,220.63335192203522 1086.62890625,237.63335192203522 1095.12890625,237.63335192203522 1095.12890625,254.63335192203522 1086.62890625,254.63335192203522 1086.62890625,278.73335802555084 1095.12890625,278.73335802555084 1095.12890625,302.83336412906647 1066.8289794921875,302.83336412906647 1066.8289794921875,294.33336412906647 1038.428955078125,294.33336412906647 1038.428955078125,302.83336412906647 1021.428955078125,302.83336412906647 1021.428955078125,294.33336412906647 1004.428955078125,294.33336412906647 1004.428955078125,302.83336412906647 987.428955078125,302.83336412906647 987.428955078125,294.33336412906647 970.428955078125,294.33336412906647 970.428955078125,302.83336412906647 953.428955078125,302.83336412906647 953.428955078125,294.33336412906647 936.428955078125,294.33336412906647 936.428955078125,302.83336412906647 919.428955078125,302.83336412906647 919.428955078125,294.33336412906647 902.428955078125,294.33336412906647 902.428955078125,302.83336412906647 885.428955078125,302.83336412906647 885.428955078125,294.33336412906647 868.428955078125,294.33336412906647 868.428955078125,302.83336412906647 851.428955078125,302.83336412906647 851.428955078125,294.33336412906647 834.3289184570312,294.33336412906647 834.3289184570312,302.83336412906647 817.3289184570312,302.83336412906647 817.3289184570312,294.33336412906647 800.3289184570312,294.33336412906647 800.3289184570312,302.83336412906647 783.3289184570312,302.83336412906647 783.3289184570312,294.33336412906647 766.3289184570312,294.33336412906647 766.3289184570312,302.83336412906647 749.3289184570312,302.83336412906647 749.3289184570312,294.33336412906647 732.3289184570312,294.33336412906647 732.3289184570312,302.83336412906647 715.3289184570312,302.83336412906647 715.3289184570312,294.33336412906647 698.3289184570312,294.33336412906647 698.3289184570312,302.83336412906647 681.3289184570312,302.83336412906647 681.3289184570312,294.33336412906647 664.3289184570312,294.33336412906647 664.3289184570312,302.83336412906647 647.3289184570312,302.83336412906647 647.3289184570312,294.33336412906647 630.3289184570312,294.33336412906647 630.3289184570312,302.83336412906647 613.2289428710938,302.83336412906647 613.2289428710938,294.33336412906647 584.928955078125,294.33336412906647 584.928955078125,302.83336412906647 556.62890625,302.83336412906647 556.62890625,278.73335802555084 565.12890625,278.73335802555084 565.12890625,254.63335192203522 556.62890625,254.63335192203522 556.62890625,237.63335192203522 565.12890625,237.63335192203522 565.12890625,220.63335192203522 556.62890625,220.63335192203522 556.62890625,203.63335192203522 565.12890625,203.63335192203522 565.12890625,186.5333458185196 556.62890625,186.5333458185196 556.62890625,169.5333458185196 565.12890625,169.5333458185196 565.12890625,152.5333458185196 556.62890625,152.5333458185196 556.62890625,135.5333458185196 565.12890625,135.5333458185196 565.12890625,118.53334581851959 556.62890625,118.53334581851959 556.62890625,101.53334581851959 565.12890625,101.53334581851959 565.12890625,84.53335344791412 556.62890625,84.53335344791412 556.62890625,67.53335344791412 565.12890625,67.53335344791412 565.12890625,43.43335497379303 556.62890625,43.43335497379303 " class="st0"/>
  </g>
  <g id="svg_5">
   <polygon id="svg_6" points="1103.6577758789062,18.000019073486328 1120.6577606201172,18.000019073486328 1120.6577606201172,26.500019073486328 1146.1577606201172,26.500019073486328 1146.1577606201172,18.000019073486328 1163.1577606201172,18.000019073486328 1163.1577606201172,26.500019073486328 1180.1577606201172,26.500019073486328 1180.1577606201172,18.000019073486328 1197.2577667236328,18.000019073486328 1197.2577667236328,26.500019073486328 1214.2577667236328,26.500019073486328 1214.2577667236328,18.000019073486328 1231.2577667236328,18.000019073486328 1231.2577667236328,26.500019073486328 1248.2577667236328,26.500019073486328 1248.2577667236328,18.000019073486328 1265.2577667236328,18.000019073486328 1265.2577667236328,26.500019073486328 1282.2577667236328,26.500019073486328 1282.2577667236328,18.000019073486328 1299.2577667236328,18.000019073486328 1299.2577667236328,26.500019073486328 1316.2577629089355,26.500019073486328 1316.2577629089355,18.000019073486328 1333.2577629089355,18.000019073486328 1333.2577629089355,26.500019073486328 1350.2577629089355,26.500019073486328 1350.2577629089355,18.000019073486328 1367.2577636241913,18.000019073486328 1367.2577636241913,26.500019073486328 1384.2577638626099,26.500019073486328 1384.2577638626099,18.000019073486328 1401.2577629089355,18.000019073486328 1401.2577629089355,26.500019073486328 1418.357765197754,26.500019073486328 1418.357765197754,18.000019073486328 1435.357765197754,18.000019073486328 1435.357765197754,26.500019073486328 1452.357765197754,26.500019073486328 1452.357765197754,18.000019073486328 1469.357765197754,18.000019073486328 1469.357765197754,26.500019073486328 1494.857765197754,26.500019073486328 1494.857765197754,18.000019073486328 1511.8577575683594,18.000019073486328 1511.8577575683594,42.100019454956055 1520.3577575683594,42.100019454956055 1520.3577575683594,66.20001983642578 1511.8577575683594,66.20001983642578 1511.8577575683594,83.20001983642578 1520.3577575683594,83.20001983642578 1520.3577575683594,100.20001602172852 1511.8577575683594,100.20001602172852 1511.8577575683594,117.20001602172852 1520.3577575683594,117.20001602172852 1520.3577575683594,134.20001602172852 1511.8577575683594,134.20001602172852 1511.8577575683594,151.20001602172852 1520.3577575683594,151.20001602172852 1520.3577575683594,168.20001602172852 1511.8577575683594,168.20001602172852 1511.8577575683594,185.20001602172852 1520.3577575683594,185.20001602172852 1520.3577575683594,202.30002212524414 1511.8577575683594,202.30002212524414 1511.8577575683594,219.30002212524414 1520.3577575683594,219.30002212524414 1520.3577575683594,236.30002212524414 1511.8577575683594,236.30002212524414 1511.8577575683594,253.30002212524414 1520.3577575683594,253.30002212524414 1520.3577575683594,277.4000129699707 1511.8577575683594,277.4000129699707 1511.8577575683594,301.5000190734863 1494.857765197754,301.5000190734863 1494.857765197754,293.0000190734863 1469.357765197754,293.0000190734863 1469.357765197754,301.5000190734863 1452.357765197754,301.5000190734863 1452.357765197754,293.0000190734863 1435.357765197754,293.0000190734863 1435.357765197754,301.5000190734863 1418.357765197754,301.5000190734863 1418.357765197754,293.0000190734863 1401.2577629089355,293.0000190734863 1401.2577629089355,301.5000190734863 1384.2577638626099,301.5000190734863 1384.2577638626099,293.0000190734863 1367.2577636241913,293.0000190734863 1367.2577636241913,301.5000190734863 1350.2577629089355,301.5000190734863 1350.2577629089355,293.0000190734863 1333.2577629089355,293.0000190734863 1333.2577629089355,301.5000190734863 1316.2577629089355,301.5000190734863 1316.2577629089355,293.0000190734863 1299.2577667236328,293.0000190734863 1299.2577667236328,301.5000190734863 1282.2577667236328,301.5000190734863 1282.2577667236328,293.0000190734863 1265.2577667236328,293.0000190734863 1265.2577667236328,301.5000190734863 1248.2577667236328,301.5000190734863 1248.2577667236328,293.0000190734863 1231.2577667236328,293.0000190734863 1231.2577667236328,301.5000190734863 1214.2577667236328,301.5000190734863 1214.2577667236328,293.0000190734863 1197.2577667236328,293.0000190734863 1197.2577667236328,301.5000190734863 1180.1577606201172,301.5000190734863 1180.1577606201172,293.0000190734863 1163.1577606201172,293.0000190734863 1163.1577606201172,301.5000190734863 1146.1577606201172,301.5000190734863 1146.1577606201172,293.0000190734863 1120.6577606201172,293.0000190734863 1120.6577606201172,301.5000190734863 1103.6577758789062,301.5000190734863 1103.6577758789062,277.4000129699707 1095.1577758789062,277.4000129699707 1095.1577758789062,253.30002212524414 1103.6577758789062,253.30002212524414 1103.6577758789062,236.30002212524414 1095.1577758789062,236.30002212524414 1095.1577758789062,219.30002212524414 1103.6577758789062,219.30002212524414 1103.6577758789062,202.30002212524414 1095.1577758789062,202.30002212524414 1095.1577758789062,185.20001602172852 1103.6577758789062,185.20001602172852 1103.6577758789062,168.20001602172852 1095.1577758789062,168.20001602172852 1095.1577758789062,151.20001602172852 1103.6577758789062,151.20001602172852 1103.6577758789062,134.20001602172852 1095.1577758789062,134.20001602172852 1095.1577758789062,117.20001602172852 1103.6577758789062,117.20001602172852 1103.6577758789062,100.20001602172852 1095.1577758789062,100.20001602172852 1095.1577758789062,83.20001983642578 1103.6577758789062,83.20001983642578 1103.6577758789062,66.20001983642578 1095.1577758789062,66.20001983642578 1095.1577758789062,42.100019454956055 1103.6577758789062,42.100019454956055 " class="st0"/>
  </g>
  <g id="svg_7">
   <polygon id="svg_8" points="1103.6577758789062,301.43102264404297 1120.6577606201172,301.43102264404297 1120.6577606201172,309.93102264404297 1146.1577606201172,309.93102264404297 1146.1577606201172,301.43102264404297 1163.1577606201172,301.43102264404297 1163.1577606201172,309.93102264404297 1180.1577606201172,309.93102264404297 1180.1577606201172,301.43102264404297 1197.2577667236328,301.43102264404297 1197.2577667236328,309.93102264404297 1214.2577667236328,309.93102264404297 1214.2577667236328,301.43102264404297 1231.2577667236328,301.43102264404297 1231.2577667236328,309.93102264404297 1248.2577667236328,309.93102264404297 1248.2577667236328,301.43102264404297 1265.2577667236328,301.43102264404297 1265.2577667236328,309.93102264404297 1282.2577667236328,309.93102264404297 1282.2577667236328,301.43102264404297 1299.2577667236328,301.43102264404297 1299.2577667236328,309.93102264404297 1316.2577629089355,309.93102264404297 1316.2577629089355,301.43102264404297 1333.2577629089355,301.43102264404297 1333.2577629089355,309.93102264404297 1350.2577629089355,309.93102264404297 1350.2577629089355,301.43102264404297 1367.2577636241913,301.43102264404297 1367.2577636241913,309.93102264404297 1384.2577638626099,309.93102264404297 1384.2577638626099,301.43102264404297 1401.2577629089355,301.43102264404297 1401.2577629089355,309.93102264404297 1418.357765197754,309.93102264404297 1418.357765197754,301.43102264404297 1435.357765197754,301.43102264404297 1435.357765197754,309.93102264404297 1452.357765197754,309.93102264404297 1452.357765197754,301.43102264404297 1469.357765197754,301.43102264404297 1469.357765197754,309.93102264404297 1494.857765197754,309.93102264404297 1494.857765197754,301.43102264404297 1511.8577575683594,301.43102264404297 1511.8577575683594,325.5310249328613 1520.3577575683594,325.5310249328613 1520.3577575683594,349.6310234069824 1511.8577575683594,349.6310234069824 1511.8577575683594,366.63102436065674 1520.3577575683594,366.63102436065674 1520.3577575683594,383.63102436065674 1511.8577575683594,383.63102436065674 1511.8577575683594,400.6310234069824 1520.3577575683594,400.6310234069824 1520.3577575683594,417.7310256958008 1511.8577575683594,417.7310256958008 1511.8577575683594,434.7310256958008 1520.3577575683594,434.7310256958008 1520.3577575683594,451.7310256958008 1511.8577575683594,451.7310256958008 1511.8577575683594,468.7310256958008 1520.3577575683594,468.7310256958008 1520.3577575683594,485.7310256958008 1511.8577575683594,485.7310256958008 1511.8577575683594,502.7310256958008 1520.3577575683594,502.7310256958008 1520.3577575683594,519.7310180664062 1511.8577575683594,519.7310180664062 1511.8577575683594,536.7310180664062 1520.3577575683594,536.7310180664062 1520.3577575683594,560.8310241699219 1511.8577575683594,560.8310241699219 1511.8577575683594,584.9310302734375 1494.857765197754,584.9310302734375 1494.857765197754,576.4310302734375 1469.357765197754,576.4310302734375 1469.357765197754,584.9310302734375 1452.357765197754,584.9310302734375 1452.357765197754,576.4310302734375 1435.357765197754,576.4310302734375 1435.357765197754,584.9310302734375 1418.357765197754,584.9310302734375 1418.357765197754,576.4310302734375 1401.2577629089355,576.4310302734375 1401.2577629089355,584.9310302734375 1384.2577638626099,584.9310302734375 1384.2577638626099,576.4310302734375 1367.2577636241913,576.4310302734375 1367.2577636241913,584.9310302734375 1350.2577629089355,584.9310302734375 1350.2577629089355,576.4310302734375 1333.2577629089355,576.4310302734375 1333.2577629089355,584.9310302734375 1316.2577629089355,584.9310302734375 1316.2577629089355,576.4310302734375 1299.2577667236328,576.4310302734375 1299.2577667236328,584.9310302734375 1282.2577667236328,584.9310302734375 1282.2577667236328,576.4310302734375 1265.2577667236328,576.4310302734375 1265.2577667236328,584.9310302734375 1248.2577667236328,584.9310302734375 1248.2577667236328,576.4310302734375 1231.2577667236328,576.4310302734375 1231.2577667236328,584.9310302734375 1214.2577667236328,584.9310302734375 1214.2577667236328,576.4310302734375 1197.2577667236328,576.4310302734375 1197.2577667236328,584.9310302734375 1180.1577606201172,584.9310302734375 1180.1577606201172,576.4310302734375 1163.1577606201172,576.4310302734375 1163.1577606201172,584.9310302734375 1146.1577606201172,584.9310302734375 1146.1577606201172,576.4310302734375 1120.6577606201172,576.4310302734375 1120.6577606201172,584.9310302734375 1103.6577758789062,584.9310302734375 1103.6577758789062,560.8310241699219 1095.1577758789062,560.8310241699219 1095.1577758789062,536.7310180664062 1103.6577758789062,536.7310180664062 1103.6577758789062,519.7310180664062 1095.1577758789062,519.7310180664062 1095.1577758789062,502.7310256958008 1103.6577758789062,502.7310256958008 1103.6577758789062,485.7310256958008 1095.1577758789062,485.7310256958008 1095.1577758789062,468.7310256958008 1103.6577758789062,468.7310256958008 1103.6577758789062,451.7310256958008 1095.1577758789062,451.7310256958008 1095.1577758789062,434.7310256958008 1103.6577758789062,434.7310256958008 1103.6577758789062,417.7310256958008 1095.1577758789062,417.7310256958008 1095.1577758789062,400.6310234069824 1103.6577758789062,400.6310234069824 1103.6577758789062,383.63102436065674 1095.1577758789062,383.63102436065674 1095.1577758789062,366.63102436065674 1103.6577758789062,366.63102436065674 1103.6577758789062,349.6310234069824 1095.1577758789062,349.6310234069824 1095.1577758789062,325.5310249328613 1103.6577758789062,325.5310249328613 " class="st0"/>
  </g>
  <g id="svg_9">
   <polygon id="svg_10" points="26.500019073486328,309.93102264404297 46.300018310546875,309.93102264404297 46.300018310546875,301.43102264404297 74.70001983642578,301.43102264404297 74.70001983642578,309.93102264404297 91.70001602172852,309.93102264404297 91.70001602172852,301.43102264404297 108.70001602172852,301.43102264404297 108.70001602172852,309.93102264404297 125.70001602172852,309.93102264404297 125.70001602172852,301.43102264404297 142.70001602172852,301.43102264404297 142.70001602172852,309.93102264404297 159.70001602172852,309.93102264404297 159.70001602172852,301.43102264404297 176.70001602172852,301.43102264404297 176.70001602172852,309.93102264404297 193.70001602172852,309.93102264404297 193.70001602172852,301.43102264404297 210.80002212524414,301.43102264404297 210.80002212524414,309.93102264404297 227.80002212524414,309.93102264404297 227.80002212524414,301.43102264404297 244.80002212524414,301.43102264404297 244.80002212524414,309.93102264404297 261.80002212524414,309.93102264404297 261.80002212524414,301.43102264404297 278.8000068664551,301.43102264404297 278.8000068664551,309.93102264404297 295.8000068664551,309.93102264404297 295.8000068664551,301.43102264404297 312.8000068664551,301.43102264404297 312.8000068664551,309.93102264404297 329.8000068664551,309.93102264404297 329.8000068664551,301.43102264404297 346.8000068664551,301.43102264404297 346.8000068664551,309.93102264404297 363.8000068664551,309.93102264404297 363.8000068664551,301.43102264404297 380.8000068664551,301.43102264404297 380.8000068664551,309.93102264404297 397.8000068664551,309.93102264404297 397.8000068664551,301.43102264404297 414.9000129699707,301.43102264404297 414.9000129699707,309.93102264404297 431.9000129699707,309.93102264404297 431.9000129699707,301.43102264404297 448.9000129699707,301.43102264404297 448.9000129699707,309.93102264404297 465.9000129699707,309.93102264404297 465.9000129699707,301.43102264404297 482.9000129699707,301.43102264404297 482.9000129699707,309.93102264404297 499.9000129699707,309.93102264404297 499.9000129699707,301.43102264404297 528.2000312805176,301.43102264404297 528.2000312805176,309.93102264404297 548.0999946594238,309.93102264404297 548.0999946594238,326.93102264404297 556.5999946594238,326.93102264404297 556.5999946594238,352.5310249328613 548.0999946594238,352.5310249328613 548.0999946594238,369.531023979187 556.5999946594238,369.531023979187 556.5999946594238,386.531023979187 548.0999946594238,386.531023979187 548.0999946594238,403.5310249328613 556.5999946594238,403.5310249328613 556.5999946594238,420.5310249328613 548.0999946594238,420.5310249328613 548.0999946594238,437.5310249328613 556.5999946594238,437.5310249328613 556.5999946594238,454.53102111816406 548.0999946594238,454.53102111816406 548.0999946594238,471.53102111816406 556.5999946594238,471.53102111816406 556.5999946594238,488.53102111816406 548.0999946594238,488.53102111816406 548.0999946594238,505.53102111816406 556.5999946594238,505.53102111816406 556.5999946594238,522.5310211181641 548.0999946594238,522.5310211181641 548.0999946594238,539.5310211181641 556.5999946594238,539.5310211181641 556.5999946594238,556.6310272216797 548.0999946594238,556.6310272216797 548.0999946594238,573.6310272216797 556.5999946594238,573.6310272216797 556.5999946594238,590.6310272216797 548.0999946594238,590.6310272216797 548.0999946594238,607.6310272216797 556.5999946594238,607.6310272216797 556.5999946594238,624.6310272216797 548.0999946594238,624.6310272216797 548.0999946594238,641.6310119628906 556.5999946594238,641.6310119628906 556.5999946594238,658.6310119628906 548.0999946594238,658.6310119628906 548.0999946594238,675.6310119628906 556.5999946594238,675.6310119628906 556.5999946594238,701.1310119628906 548.0999946594238,701.1310119628906 548.0999946594238,718.1310119628906 528.2000312805176,718.1310119628906 528.2000312805176,726.6310119628906 499.9000129699707,726.6310119628906 499.9000129699707,718.1310119628906 482.9000129699707,718.1310119628906 482.9000129699707,726.6310119628906 465.9000129699707,726.6310119628906 465.9000129699707,718.1310119628906 448.9000129699707,718.1310119628906 448.9000129699707,726.6310119628906 431.9000129699707,726.6310119628906 431.9000129699707,718.1310119628906 414.9000129699707,718.1310119628906 414.9000129699707,726.6310119628906 397.8000068664551,726.6310119628906 397.8000068664551,718.1310119628906 380.8000068664551,718.1310119628906 380.8000068664551,726.6310119628906 363.8000068664551,726.6310119628906 363.8000068664551,718.1310119628906 346.8000068664551,718.1310119628906 346.8000068664551,726.6310119628906 329.8000068664551,726.6310119628906 329.8000068664551,718.1310119628906 312.8000068664551,718.1310119628906 312.8000068664551,726.6310119628906 295.8000068664551,726.6310119628906 295.8000068664551,718.1310119628906 278.8000068664551,718.1310119628906 278.8000068664551,726.6310119628906 261.80002212524414,726.6310119628906 261.80002212524414,718.1310119628906 244.80002212524414,718.1310119628906 244.80002212524414,726.6310119628906 227.80002212524414,726.6310119628906 227.80002212524414,718.1310119628906 210.80002212524414,718.1310119628906 210.80002212524414,726.6310119628906 193.70001602172852,726.6310119628906 193.70001602172852,718.1310119628906 176.70001602172852,718.1310119628906 176.70001602172852,726.6310119628906 159.70001602172852,726.6310119628906 159.70001602172852,718.1310119628906 142.70001602172852,718.1310119628906 142.70001602172852,726.6310119628906 125.70001602172852,726.6310119628906 125.70001602172852,718.1310119628906 108.70001602172852,718.1310119628906 108.70001602172852,726.6310119628906 91.70001602172852,726.6310119628906 91.70001602172852,718.1310119628906 74.70001983642578,718.1310119628906 74.70001983642578,726.6310119628906 46.300018310546875,726.6310119628906 46.300018310546875,718.1310119628906 26.500019073486328,718.1310119628906 26.500019073486328,701.1310119628906 18.000019073486328,701.1310119628906 18.000019073486328,675.6310119628906 26.500019073486328,675.6310119628906 26.500019073486328,658.6310119628906 18.000019073486328,658.6310119628906 18.000019073486328,641.6310119628906 26.500019073486328,641.6310119628906 26.500019073486328,624.6310272216797 18.000019073486328,624.6310272216797 18.000019073486328,607.6310272216797 26.500019073486328,607.6310272216797 26.500019073486328,590.6310272216797 18.000019073486328,590.6310272216797 18.000019073486328,573.6310272216797 26.500019073486328,573.6310272216797 26.500019073486328,556.6310272216797 18.000019073486328,556.6310272216797 18.000019073486328,539.5310211181641 26.500019073486328,539.5310211181641 26.500019073486328,522.5310211181641 18.000019073486328,522.5310211181641 18.000019073486328,505.53102111816406 26.500019073486328,505.53102111816406 26.500019073486328,488.53102111816406 18.000019073486328,488.53102111816406 18.000019073486328,471.53102111816406 26.500019073486328,471.53102111816406 26.500019073486328,454.53102111816406 18.000019073486328,454.53102111816406 18.000019073486328,437.5310249328613 26.500019073486328,437.5310249328613 26.500019073486328,420.5310249328613 18.000019073486328,420.5310249328613 18.000019073486328,403.5310249328613 26.500019073486328,403.5310249328613 26.500019073486328,386.531023979187 18.000019073486328,386.531023979187 18.000019073486328,369.531023979187 26.500019073486328,369.531023979187 26.500019073486328,352.5310249328613 18.000019073486328,352.5310249328613 18.000019073486328,326.93102264404297 26.500019073486328,326.93102264404297 " class="st0"/>
  </g>
  <g id="svg_11">
   <polygon id="svg_12" points="565.1289367675781,309.93102264404297 584.9289398193359,309.93102264404297 584.9289398193359,301.43102264404297 613.2289428710938,301.43102264404297 613.2289428710938,309.93102264404297 630.3289413452148,309.93102264404297 630.3289413452148,301.43102264404297 647.3289413452148,301.43102264404297 647.3289413452148,309.93102264404297 664.3289432525635,309.93102264404297 664.3289432525635,301.43102264404297 681.3289432525635,301.43102264404297 681.3289432525635,309.93102264404297 698.3289427757263,309.93102264404297 698.3289427757263,301.43102264404297 715.3289432525635,301.43102264404297 715.3289432525635,309.93102264404297 732.3289413452148,309.93102264404297 732.3289413452148,301.43102264404297 749.3289413452148,301.43102264404297 749.3289413452148,309.93102264404297 766.3289413452148,309.93102264404297 766.3289413452148,301.43102264404297 783.3289413452148,301.43102264404297 783.3289413452148,309.93102264404297 800.3289413452148,309.93102264404297 800.3289413452148,301.43102264404297 817.3289413452148,301.43102264404297 817.3289413452148,309.93102264404297 834.3289489746094,309.93102264404297 834.3289489746094,301.43102264404297 851.4289398193359,301.43102264404297 851.4289398193359,309.93102264404297 868.4289398193359,309.93102264404297 868.4289398193359,301.43102264404297 885.4289398193359,301.43102264404297 885.4289398193359,309.93102264404297 902.4289398193359,309.93102264404297 902.4289398193359,301.43102264404297 919.4289398193359,301.43102264404297 919.4289398193359,309.93102264404297 936.4289398193359,309.93102264404297 936.4289398193359,301.43102264404297 953.428955078125,301.43102264404297 953.428955078125,309.93102264404297 970.428955078125,309.93102264404297 970.428955078125,301.43102264404297 987.428955078125,301.43102264404297 987.428955078125,309.93102264404297 1004.428955078125,309.93102264404297 1004.428955078125,301.43102264404297 1021.428955078125,301.43102264404297 1021.428955078125,309.93102264404297 1038.428955078125,309.93102264404297 1038.428955078125,301.43102264404297 1066.8289489746094,301.43102264404297 1066.8289489746094,309.93102264404297 1086.6289367675781,309.93102264404297 1086.6289367675781,326.93102264404297 1095.1289367675781,326.93102264404297 1095.1289367675781,352.5310249328613 1086.6289367675781,352.5310249328613 1086.6289367675781,369.531023979187 1095.1289367675781,369.531023979187 1095.1289367675781,386.531023979187 1086.6289367675781,386.531023979187 1086.6289367675781,403.5310249328613 1095.1289367675781,403.5310249328613 1095.1289367675781,420.5310249328613 1086.6289367675781,420.5310249328613 1086.6289367675781,437.5310249328613 1095.1289367675781,437.5310249328613 1095.1289367675781,454.53102111816406 1086.6289367675781,454.53102111816406 1086.6289367675781,471.53102111816406 1095.1289367675781,471.53102111816406 1095.1289367675781,488.53102111816406 1086.6289367675781,488.53102111816406 1086.6289367675781,505.53102111816406 1095.1289367675781,505.53102111816406 1095.1289367675781,522.5310211181641 1086.6289367675781,522.5310211181641 1086.6289367675781,539.5310211181641 1095.1289367675781,539.5310211181641 1095.1289367675781,556.6310272216797 1086.6289367675781,556.6310272216797 1086.6289367675781,573.6310272216797 1095.1289367675781,573.6310272216797 1095.1289367675781,590.6310272216797 1086.6289367675781,590.6310272216797 1086.6289367675781,607.6310272216797 1095.1289367675781,607.6310272216797 1095.1289367675781,624.6310272216797 1086.6289367675781,624.6310272216797 1086.6289367675781,641.6310119628906 1095.1289367675781,641.6310119628906 1095.1289367675781,658.6310119628906 1086.6289367675781,658.6310119628906 1086.6289367675781,675.6310119628906 1095.1289367675781,675.6310119628906 1095.1289367675781,701.1310119628906 1086.6289367675781,701.1310119628906 1086.6289367675781,718.1310119628906 1066.8289489746094,718.1310119628906 1066.8289489746094,726.6310119628906 1038.428955078125,726.6310119628906 1038.428955078125,718.1310119628906 1021.428955078125,718.1310119628906 1021.428955078125,726.6310119628906 1004.428955078125,726.6310119628906 1004.428955078125,718.1310119628906 987.428955078125,718.1310119628906 987.428955078125,726.6310119628906 970.428955078125,726.6310119628906 970.428955078125,718.1310119628906 953.428955078125,718.1310119628906 953.428955078125,726.6310119628906 936.4289398193359,726.6310119628906 936.4289398193359,718.1310119628906 919.4289398193359,718.1310119628906 919.4289398193359,726.6310119628906 902.4289398193359,726.6310119628906 902.4289398193359,718.1310119628906 885.4289398193359,718.1310119628906 885.4289398193359,726.6310119628906 868.4289398193359,726.6310119628906 868.4289398193359,718.1310119628906 851.4289398193359,718.1310119628906 851.4289398193359,726.6310119628906 834.3289489746094,726.6310119628906 834.3289489746094,718.1310119628906 817.3289413452148,718.1310119628906 817.3289413452148,726.6310119628906 800.3289413452148,726.6310119628906 800.3289413452148,718.1310119628906 783.3289413452148,718.1310119628906 783.3289413452148,726.6310119628906 766.3289413452148,726.6310119628906 766.3289413452148,718.1310119628906 749.3289413452148,718.1310119628906 749.3289413452148,726.6310119628906 732.3289413452148,726.6310119628906 732.3289413452148,718.1310119628906 715.3289432525635,718.1310119628906 715.3289432525635,726.6310119628906 698.3289427757263,726.6310119628906 698.3289427757263,718.1310119628906 681.3289432525635,718.1310119628906 681.3289432525635,726.6310119628906 664.3289432525635,726.6310119628906 664.3289432525635,718.1310119628906 647.3289413452148,718.1310119628906 647.3289413452148,726.6310119628906 630.3289413452148,726.6310119628906 630.3289413452148,718.1310119628906 613.2289428710938,718.1310119628906 613.2289428710938,726.6310119628906 584.9289398193359,726.6310119628906 584.9289398193359,718.1310119628906 565.1289367675781,718.1310119628906 565.1289367675781,701.1310119628906 556.6289367675781,701.1310119628906 556.6289367675781,675.6310119628906 565.1289367675781,675.6310119628906 565.1289367675781,658.6310119628906 556.6289367675781,658.6310119628906 556.6289367675781,641.6310119628906 565.1289367675781,641.6310119628906 565.1289367675781,624.6310272216797 556.6289367675781,624.6310272216797 556.6289367675781,607.6310272216797 565.1289367675781,607.6310272216797 565.1289367675781,590.6310272216797 556.6289367675781,590.6310272216797 556.6289367675781,573.6310272216797 565.1289367675781,573.6310272216797 565.1289367675781,556.6310272216797 556.6289367675781,556.6310272216797 556.6289367675781,539.5310211181641 565.1289367675781,539.5310211181641 565.1289367675781,522.5310211181641 556.6289367675781,522.5310211181641 556.6289367675781,505.53102111816406 565.1289367675781,505.53102111816406 565.1289367675781,488.53102111816406 556.6289367675781,488.53102111816406 556.6289367675781,471.53102111816406 565.1289367675781,471.53102111816406 565.1289367675781,454.53102111816406 556.6289367675781,454.53102111816406 556.6289367675781,437.5310249328613 565.1289367675781,437.5310249328613 565.1289367675781,420.5310249328613 556.6289367675781,420.5310249328613 556.6289367675781,403.5310249328613 565.1289367675781,403.5310249328613 565.1289367675781,386.531023979187 556.6289367675781,386.531023979187 556.6289367675781,369.531023979187 565.1289367675781,369.531023979187 565.1289367675781,352.5310249328613 556.6289367675781,352.5310249328613 556.6289367675781,326.93102264404297 565.1289367675781,326.93102264404297 " class="st0"/>
  </g>
  <circle id="svg_16" r="7.3" cy="276.166644" cx="54.433333" class="st1"/>
  <circle id="svg_17" r="7.3" cy="255.266654" cx="54.433333" class="st1"/>
  <circle id="svg_21" r="7.3" cy="276.166644" cx="105.533333" class="st1"/>
  <circle id="svg_22" r="7.3" cy="255.266654" cx="105.533333" class="st1"/>
  <circle id="svg_26" r="7.3" cy="276.166644" cx="156.533333" class="st1"/>
  <circle id="svg_27" r="7.3" cy="255.266654" cx="156.533333" class="st1"/>
  <circle id="svg_31" r="7.3" cy="276.166644" cx="207.533333" class="st1"/>
  <circle id="svg_32" r="7.3" cy="255.266654" cx="207.533333" class="st1"/>
  <circle id="svg_36" r="7.3" cy="276.166644" cx="258.633333" class="st1"/>
  <circle id="svg_37" r="7.3" cy="256.599987" cx="258.633333" class="st1"/>
  <circle id="svg_41" r="7.3" cy="276.166644" cx="310.633333" class="st1"/>
  <circle id="svg_42" r="7.3" cy="256.599987" cx="310.633333" class="st1"/>
  <circle id="svg_46" r="7.3" cy="276.166644" cx="361.833333" class="st1"/>
  <circle id="svg_47" r="7.3" cy="256.599987" cx="361.833333" class="st1"/>
  <circle id="svg_51" r="7.3" cy="276.166644" cx="412.833333" class="st1"/>
  <circle id="svg_52" r="7.3" cy="256.599987" cx="412.833333" class="st1"/>
  <circle id="svg_56" r="7.3" cy="276.166644" cx="463.833333" class="st1"/>
  <circle id="svg_57" r="7.3" cy="256.599987" cx="463.833333" class="st1"/>
  <circle id="svg_61" r="7.3" cy="276.166644" cx="514.833333" class="st1"/>
  <circle id="svg_62" r="7.3" cy="255.266654" cx="514.833333" class="st1"/>
  <circle id="svg_113" r="22.700001" cy="223.699964" cx="258.899815" class="st1"/>
  <circle id="svg_114" r="22.700001" cy="222.366688" cx="1305.933325" class="st1"/>
  <circle id="svg_115" r="22.700001" cy="505.233347" cx="1302.900005" class="st1"/>
  <circle id="svg_116" r="22.700001" cy="222.566632" cx="803.266577" class="st1"/>
  <circle id="svg_117" r="7.3" cy="696.166736" cx="598.433455" class="st1"/>
  <circle id="svg_118" r="7.3" cy="675.266745" cx="598.433455" class="st1"/>
  <circle id="svg_119" r="7.3" cy="696.166736" cx="649.533455" class="st1"/>
  <circle id="svg_120" r="7.3" cy="675.266745" cx="649.533455" class="st1"/>
  <circle id="svg_121" r="7.3" cy="696.166736" cx="700.533455" class="st1"/>
  <circle id="svg_122" r="7.3" cy="675.266745" cx="699.200121" class="st1"/>
  <circle id="svg_123" r="7.3" cy="696.166736" cx="751.533455" class="st1"/>
  <circle id="svg_124" r="7.3" cy="675.266745" cx="751.533455" class="st1"/>
  <circle id="svg_125" r="7.3" cy="696.166736" cx="802.633455" class="st1"/>
  <circle id="svg_126" r="7.3" cy="676.600079" cx="802.633455" class="st1"/>
  <circle id="svg_127" r="7.3" cy="696.166736" cx="854.633455" class="st1"/>
  <circle id="svg_128" r="7.3" cy="676.600079" cx="854.633455" class="st1"/>
  <circle id="svg_129" r="7.3" cy="696.166736" cx="905.833455" class="st1"/>
  <circle id="svg_130" r="7.3" cy="676.600079" cx="905.833455" class="st1"/>
  <circle id="svg_131" r="7.3" cy="696.166736" cx="956.833455" class="st1"/>
  <circle id="svg_132" r="7.3" cy="676.600079" cx="956.833455" class="st1"/>
  <circle id="svg_133" r="7.3" cy="696.166736" cx="1007.833455" class="st1"/>
  <circle id="svg_134" r="7.3" cy="676.600079" cx="1007.833455" class="st1"/>
  <circle id="svg_135" r="7.3" cy="696.166736" cx="1058.833455" class="st1"/>
  <circle id="svg_136" r="7.3" cy="675.266745" cx="1058.833455" class="st1"/>
  <circle id="svg_137" r="7.3" cy="277.499988" cx="1127.76689" class="st1"/>
  <circle id="svg_138" r="7.3" cy="256.599997" cx="1127.76689" class="st1"/>
  <circle id="svg_139" r="7.3" cy="277.499988" cx="1178.86689" class="st1"/>
  <circle id="svg_140" r="7.3" cy="256.599997" cx="1178.86689" class="st1"/>
  <circle id="svg_141" r="7.3" cy="277.499988" cx="1229.86689" class="st1"/>
  <circle id="svg_142" r="7.3" cy="256.599997" cx="1228.533556" class="st1"/>
  <circle id="svg_143" r="7.3" cy="277.499988" cx="1280.86689" class="st1"/>
  <circle id="svg_144" r="7.3" cy="256.599997" cx="1280.86689" class="st1"/>
  <circle id="svg_145" r="7.3" cy="277.499988" cx="1331.96689" class="st1"/>
  <circle id="svg_146" r="7.3" cy="257.933331" cx="1331.96689" class="st1"/>
  <circle id="svg_147" r="7.3" cy="277.499988" cx="1383.96689" class="st1"/>
  <circle id="svg_148" r="7.3" cy="257.933331" cx="1383.96689" class="st1"/>
  <circle id="svg_149" r="7.3" cy="277.499988" cx="1435.16689" class="st1"/>
  <circle id="svg_150" r="7.3" cy="257.933331" cx="1435.16689" class="st1"/>
  <circle id="svg_151" r="7.3" cy="277.499988" cx="1486.16689" class="st1"/>
  <circle id="svg_152" r="7.3" cy="257.933331" cx="1486.16689" class="st1"/>
  <circle id="svg_155" r="7.3" cy="277.499988" cx="1588.16689" class="st1"/>
  <circle id="svg_156" r="7.3" cy="256.599997" cx="1588.16689" class="st1"/>
  <circle id="svg_177" r="7.3" cy="561.500049" cx="1125.100223" class="st1"/>
  <circle id="svg_178" r="7.3" cy="540.600058" cx="1125.100223" class="st1"/>
  <circle id="svg_179" r="7.3" cy="561.500049" cx="1176.200223" class="st1"/>
  <circle id="svg_180" r="7.3" cy="540.600058" cx="1176.200223" class="st1"/>
  <circle id="svg_181" r="7.3" cy="561.500049" cx="1227.200223" class="st1"/>
  <circle id="svg_182" r="7.3" cy="540.600058" cx="1225.866889" class="st1"/>
  <circle id="svg_183" r="7.3" cy="561.500049" cx="1278.200223" class="st1"/>
  <circle id="svg_184" r="7.3" cy="540.600058" cx="1278.200223" class="st1"/>
  <circle id="svg_185" r="7.3" cy="561.500049" cx="1329.300223" class="st1"/>
  <circle id="svg_186" r="7.3" cy="541.933392" cx="1329.300223" class="st1"/>
  <circle id="svg_187" r="7.3" cy="561.500049" cx="1381.300223" class="st1"/>
  <circle id="svg_188" r="7.3" cy="541.933392" cx="1381.300223" class="st1"/>
  <circle id="svg_189" r="7.3" cy="561.500049" cx="1432.500223" class="st1"/>
  <circle id="svg_190" r="7.3" cy="541.933392" cx="1432.500223" class="st1"/>
  <circle id="svg_191" r="7.3" cy="561.500049" cx="1483.500223" class="st1"/>
  <circle id="svg_192" r="7.3" cy="541.933392" cx="1483.500223" class="st1"/>
  <circle id="svg_193" r="7.3" cy="277.499978" cx="598.433455" class="st1"/>
  <circle id="svg_194" r="7.3" cy="256.599987" cx="599.766788" class="st1"/>
  <circle id="svg_195" r="7.3" cy="277.499978" cx="649.533455" class="st1"/>
  <circle id="svg_196" r="7.3" cy="256.599987" cx="649.533455" class="st1"/>
  <circle id="svg_197" r="7.3" cy="277.499978" cx="700.533455" class="st1"/>
  <circle id="svg_198" r="7.3" cy="256.599987" cx="700.533455" class="st1"/>
  <circle id="svg_199" r="7.3" cy="277.499978" cx="751.533455" class="st1"/>
  <circle id="svg_200" r="7.3" cy="256.599987" cx="751.533455" class="st1"/>
  <circle id="svg_201" r="7.3" cy="277.499978" cx="802.633455" class="st1"/>
  <circle id="svg_202" r="7.3" cy="257.933321" cx="802.633455" class="st1"/>
  <circle id="svg_203" r="7.3" cy="277.499978" cx="854.633455" class="st1"/>
  <circle id="svg_204" r="7.3" cy="257.933321" cx="854.633455" class="st1"/>
  <circle id="svg_205" r="7.3" cy="277.499978" cx="905.833455" class="st1"/>
  <circle id="svg_206" r="7.3" cy="257.933321" cx="905.833455" class="st1"/>
  <circle id="svg_207" r="7.3" cy="277.499978" cx="956.833455" class="st1"/>
  <circle id="svg_208" r="7.3" cy="257.933321" cx="956.833455" class="st1"/>
  <circle id="svg_209" r="7.3" cy="277.499978" cx="1007.833455" class="st1"/>
  <circle id="svg_210" r="7.3" cy="257.933321" cx="1007.833455" class="st1"/>
  <circle id="svg_211" r="7.3" cy="277.499978" cx="1058.833455" class="st1"/>
  <circle id="svg_212" r="7.3" cy="256.599987" cx="1058.833455" class="st1"/>
  <circle id="svg_213" r="7.3" cy="697.500049" cx="57.1" class="st1"/>
  <circle id="svg_214" r="7.3" cy="676.600058" cx="57.1" class="st1"/>
  <circle id="svg_215" r="7.3" cy="697.500049" cx="108.2" class="st1"/>
  <circle id="svg_216" r="7.3" cy="676.600058" cx="108.2" class="st1"/>
  <circle id="svg_217" r="7.3" cy="697.500049" cx="159.2" class="st1"/>
  <circle id="svg_218" r="7.3" cy="676.600058" cx="159.2" class="st1"/>
  <circle id="svg_219" r="7.3" cy="697.500049" cx="210.2" class="st1"/>
  <circle id="svg_220" r="7.3" cy="676.600058" cx="210.2" class="st1"/>
  <circle id="svg_221" r="7.3" cy="697.500049" cx="261.3" class="st1"/>
  <circle id="svg_222" r="7.3" cy="677.933392" cx="261.3" class="st1"/>
  <circle id="svg_223" r="7.3" cy="697.500049" cx="313.3" class="st1"/>
  <circle id="svg_224" r="7.3" cy="677.933392" cx="313.3" class="st1"/>
  <circle id="svg_225" r="7.3" cy="697.500049" cx="364.5" class="st1"/>
  <circle id="svg_226" r="7.3" cy="677.933392" cx="364.5" class="st1"/>
  <circle id="svg_227" r="7.3" cy="697.500049" cx="415.5" class="st1"/>
  <circle id="svg_228" r="7.3" cy="677.933392" cx="415.5" class="st1"/>
  <circle id="svg_229" r="7.3" cy="697.500049" cx="466.5" class="st1"/>
  <circle id="svg_230" r="7.3" cy="677.933392" cx="466.5" class="st1"/>
  <circle id="svg_231" r="7.3" cy="697.500049" cx="517.5" class="st1"/>
  <circle id="svg_232" r="7.3" cy="676.600058" cx="517.5" class="st1"/>
 </g>
</svg>